<?xml version="1.0" encoding="UTF-8" standalone="no"?>
<svg
   xmlns:dc="http://purl.org/dc/elements/1.1/"
   xmlns:cc="http://creativecommons.org/ns#"
   xmlns:rdf="http://www.w3.org/1999/02/22-rdf-syntax-ns#"
   xmlns:svg="http://www.w3.org/2000/svg"
   xmlns="http://www.w3.org/2000/svg"
   viewBox="0 0 480 480"
   height="480"
   width="480"
   xml:space="preserve"
   id="svg2"
   version="1.1"><metadata
     id="metadata8"><rdf:RDF><cc:Work
         rdf:about=""><dc:format>image/svg+xml</dc:format><dc:type
           rdf:resource="http://purl.org/dc/dcmitype/StillImage" /></cc:Work></rdf:RDF></metadata><defs
     id="defs6"><clipPath
       id="clipPath18"
       clipPathUnits="userSpaceOnUse"><path
         id="path16"
         d="M 0,360 H 360 V 0 H 0 Z" /></clipPath></defs><g
     transform="matrix(1.3333333,0,0,-1.3333333,0,480)"
     id="g10"><g
       id="g12"><g
         clip-path="url(#clipPath18)"
         id="g14"><g
           transform="translate(321.2041,79.5273)"
           id="g20"><path
             id="path22"
             style="fill:#008d00;fill-opacity:1;fill-rule:nonzero;stroke:none"
             d="M 0,0 C -10.711,1.716 -19.213,3.913 -19.053,4.875 -18.869,5.918 -10.092,5.346 0.626,3.659 11.231,1.93 19.739,-0.27 19.562,-1.316 19.384,-2.269 10.615,-1.696 0,0 m 13.551,-17.98 c -0.503,-0.847 -8.546,2.587 -17.936,7.698 -9.473,5.141 -16.695,10.018 -16.212,10.87 0.534,0.92 8.595,-2.52 18.073,-7.636 9.389,-5.134 16.616,-10.005 16.075,-10.932 M 2.07,-31.679 c -0.763,-0.621 -7.129,5.261 -14.175,13.162 -7.099,7.972 -12.189,14.943 -11.45,15.579 0.836,0.692 7.212,-5.2 14.336,-13.152 7.022,-7.92 12.111,-14.892 11.289,-15.589 m -15.593,-9.083 c -0.944,-0.335 -4.862,7.303 -8.726,17.055 -3.888,9.845 -6.241,18.08 -5.303,18.432 1.007,0.375 4.95,-7.271 8.869,-17.102 3.829,-9.767 6.18,-18.001 5.16,-18.385 m -9.495,78.715 c 3.694,9.818 7.467,17.547 8.497,17.179 0.935,-0.344 -1.246,-8.612 -4.901,-18.443 -3.693,-9.909 -7.468,-17.635 -8.406,-17.305 -1.026,0.362 1.155,8.647 4.81,18.569 m -8.349,-82.114 c -1.001,-0.006 -2.015,8.474 -2.234,18.932 -0.217,10.531 0.456,19.057 1.455,19.072 1.09,0.028 2.116,-8.469 2.367,-19.005 0.181,-10.451 -0.492,-18.979 -1.588,-18.999 m -0.802,52.505 c 0.973,-0.02 1.781,-0.798 1.781,-1.731 -0.014,-1.013 -0.808,-1.798 -1.781,-1.798 -1.033,-0.012 -1.842,0.785 -1.864,1.798 0.022,0.933 0.831,1.731 1.864,1.731 m -0.27,49.832 c 1,-0.012 1.847,-8.505 1.847,-18.964 0,-10.533 -0.847,-19.04 -1.847,-19.04 -1.091,0 -1.939,8.507 -1.967,19.04 0.028,10.459 0.876,18.964 1.967,18.964 m -8.76,-82.298 c -3.486,-9.884 -7.109,-17.68 -8.131,-17.346 -0.948,0.329 1.064,8.638 4.52,18.545 3.477,9.976 7.095,17.769 8.046,17.456 1.029,-0.339 -0.975,-8.665 -4.435,-18.655 m -24.091,-8.871 c -0.772,0.621 4.02,7.769 10.737,15.94 6.768,8.239 12.899,14.369 13.675,13.763 0.854,-0.661 -3.945,-7.823 -10.692,-16.08 -6.743,-8.154 -12.866,-14.278 -13.72,-13.623 m -12.041,13.231 c -0.509,0.836 6.497,5.987 15.675,11.443 9.249,5.515 17.167,9.256 17.688,8.428 0.561,-0.899 -6.459,-6.055 -15.695,-11.584 -9.181,-5.441 -17.094,-9.19 -17.668,-8.287 m -6.69,16.416 c -0.192,0.959 8.2,3.478 18.744,5.587 10.63,2.134 19.381,3.046 19.581,2.095 0.223,-1.038 -8.191,-3.568 -18.812,-5.72 -10.548,-2.084 -19.294,-2.996 -19.513,-1.962 m -0.547,17.651 c 0.157,0.967 8.927,0.563 19.582,-0.933 10.745,-1.501 19.281,-3.534 19.15,-4.493 C -46,7.827 -54.784,8.23 -65.528,9.711 c -10.65,1.52 -19.201,3.559 -19.04,4.594 m 5.66,16.793 c 0.484,0.844 8.599,-2.427 18.094,-7.354 9.57,-4.963 16.898,-9.693 16.428,-10.553 -0.512,-0.931 -8.64,2.353 -18.228,7.284 -9.481,4.951 -16.805,9.682 -16.294,10.623 m 11.199,13.904 c 0.751,0.644 7.239,-5.121 14.444,-12.877 7.265,-7.833 12.501,-14.699 11.759,-15.351 -0.813,-0.707 -7.307,5.058 -14.595,12.87 -7.184,7.781 -12.417,14.649 -11.608,15.358 m 15.402,9.389 c 0.927,0.35 5.014,-7.202 9.074,-16.887 4.092,-9.754 6.613,-17.948 5.689,-18.314 -1.015,-0.399 -5.102,7.167 -9.227,16.92 -4.032,9.689 -6.544,17.883 -5.536,18.281 M 1.249,46.362 c 0.765,-0.638 -4.18,-7.688 -11.06,-15.735 -6.94,-8.094 -13.191,-14.111 -13.956,-13.493 -0.845,0.672 4.104,7.744 11.018,15.867 6.909,8.021 13.166,14.034 13.998,13.361 M 13.022,32.891 c 0.491,-0.842 -6.625,-5.852 -15.911,-11.135 -9.365,-5.334 -17.35,-8.925 -17.844,-8.092 -0.564,0.919 6.571,5.934 15.918,11.291 9.298,5.26 17.286,8.857 17.837,7.936 M 19.378,16.347 C 19.544,15.388 11.101,13.026 0.517,11.119 -10.151,9.199 -18.92,8.464 -19.099,9.418 c -0.2,1.04 8.263,3.406 18.918,5.353 10.589,1.875 19.358,2.618 19.559,1.576 m -51.547,50.521 c -34.311,0 -62.102,-26.998 -62.055,-60.255 -0.047,-33.335 27.744,-60.325 62.055,-60.371 34.255,0.046 62.054,27.036 62.045,60.371 0,33.257 -27.79,60.269 -62.045,60.255" /></g><g
           transform="translate(160.6094,267.1841)"
           id="g24"><path
             id="path26"
             style="fill:#8c78b6;fill-opacity:1;fill-rule:nonzero;stroke:none"
             d="m 0,0 c 1.392,-3.811 -0.569,-8.029 -4.38,-9.421 -3.81,-1.392 -8.028,0.568 -9.421,4.379 -1.392,3.812 0.569,8.029 4.38,9.421 C -5.61,5.771 -1.393,3.811 0,0" /></g><g
           transform="translate(170.6919,239.5835)"
           id="g28"><path
             id="path30"
             style="fill:#8c78b6;fill-opacity:1;fill-rule:nonzero;stroke:none"
             d="m 0,0 c 1.392,-3.811 -0.568,-8.029 -4.379,-9.421 -3.811,-1.392 -8.029,0.568 -9.421,4.379 -1.392,3.812 0.569,8.029 4.379,9.421 C -5.61,5.771 -1.392,3.811 0,0" /></g><g
           transform="translate(179.4507,258.4253)"
           id="g32"><path
             id="path34"
             style="fill:#8c78b6;fill-opacity:1;fill-rule:nonzero;stroke:none"
             d="m 0,0 c 1.393,-3.811 -0.568,-8.029 -4.379,-9.421 -3.811,-1.392 -8.029,0.568 -9.421,4.379 -1.392,3.811 0.569,8.029 4.38,9.421 C -5.61,5.771 -1.392,3.811 0,0" /></g><g
           transform="translate(151.8501,248.3423)"
           id="g36"><path
             id="path38"
             style="fill:#8c78b6;fill-opacity:1;fill-rule:nonzero;stroke:none"
             d="m 0,0 c 1.392,-3.811 -0.568,-8.029 -4.379,-9.421 -3.811,-1.392 -8.029,0.569 -9.421,4.379 -1.392,3.812 0.569,8.029 4.379,9.421 C -5.61,5.771 -1.392,3.811 0,0" /></g><g
           transform="translate(98.7153,224.6592)"
           id="g40"><path
             id="path42"
             style="fill:#8c78b6;fill-opacity:1;fill-rule:nonzero;stroke:none"
             d="m 0,0 4.237,-11.598 -7.539,-2.754 -4.237,11.598 -11.598,-4.237 -2.754,7.539 11.598,4.237 -4.237,11.598 7.539,2.754 4.237,-11.598 11.598,4.237 2.754,-7.539 z m 16.455,10.284 c -4.358,11.93 -17.562,18.068 -29.493,13.71 -11.93,-4.358 -18.068,-17.563 -13.71,-29.493 4.358,-11.93 17.562,-18.068 29.493,-13.71 11.93,4.358 18.068,17.563 13.71,29.493" /></g><g
           transform="translate(202.2715,231.7471)"
           id="g44"><path
             id="path46"
             style="fill:#8c78b6;fill-opacity:1;fill-rule:nonzero;stroke:none"
             d="M 0,0 46.075,-16.767 9.586,-44.186 Z M 61.275,-27.693 46.109,-65.606 c -0.708,-1.773 -2.277,-3.056 -4.154,-3.4 L 0.721,-76.56 c -2.033,-0.372 -4.105,0.415 -5.377,2.044 l -0.215,0.276 c -0.083,0.302 -0.161,0.604 -0.257,0.903 l -8.103,25.206 c -0.621,1.929 -1.501,3.737 -2.593,5.392 L 7.151,-47.24 -0.952,-69.452 c -0.232,-0.636 0.096,-1.339 0.731,-1.571 0.139,-0.05 0.281,-0.075 0.42,-0.075 0.5,0 0.97,0.309 1.152,0.806 l 8.085,22.161 28.377,-17.123 c 0.199,-0.12 0.416,-0.177 0.632,-0.177 0.415,0 0.821,0.211 1.05,0.593 0.35,0.579 0.163,1.332 -0.416,1.682 l -28.098,16.954 36.196,27.198 -3.022,-37.195 c -0.055,-0.675 0.448,-1.266 1.121,-1.321 0.035,-0.002 0.068,-0.004 0.101,-0.004 0.632,0 1.168,0.485 1.22,1.126 l 3.063,37.707 5.847,-4.349 c 0.22,-0.164 0.476,-0.242 0.73,-0.242 0.374,0 0.743,0.17 0.985,0.493 0.403,0.543 0.291,1.311 -0.252,1.715 l -7.39,5.497 -7.766,15.248 C 41.506,0.274 40.767,0.515 40.167,0.207 39.563,-0.101 39.324,-0.838 39.631,-1.441 L 46.116,-14.174 1.624,2.016 18.763,9.529 c 0.619,0.271 0.901,0.994 0.63,1.614 -0.272,0.62 -0.995,0.903 -1.615,0.63 L -1.797,3.192 -10.703,5.125 C -11.37,5.272 -12.018,4.849 -12.16,4.187 -12.304,3.526 -11.884,2.874 -11.223,2.73 L -3.799,1.119 -25.104,-27.16 c -0.407,-0.54 -0.299,-1.308 0.241,-1.715 0.221,-0.167 0.48,-0.247 0.737,-0.247 0.371,0 0.738,0.168 0.979,0.488 l 20.848,27.672 9.501,-43.791 -25.36,4.967 c -3.014,3.22 -6.961,5.539 -11.384,6.521 l -1.557,0.346 14.266,36.206 c 0.646,1.641 2.033,2.877 3.737,3.33 l 41.159,10.952 c 2.249,0.598 4.63,-0.268 5.969,-2.17 l 26.629,-37.834 c 1.08,-1.536 1.312,-3.514 0.614,-5.258 m -76.468,-62.43 -17.59,-19.443 c -3.658,-4.044 -9.232,-5.767 -14.533,-4.494 l -25.823,6.206 c -4.998,1.2 -9.024,4.891 -10.653,9.766 l -7.975,23.868 c -1.715,5.131 -0.514,10.789 3.138,14.782 l 18.388,20.103 c 3.597,3.932 9.022,5.645 14.225,4.49 l 24.896,-5.526 c 5.168,-1.147 9.339,-4.948 10.959,-9.987 l 8.103,-25.206 c 1.628,-5.065 0.433,-10.614 -3.135,-14.559 m -105.562,8.515 c -6.997,0.444 -12.255,6.783 -14.064,16.958 -1.848,10.392 -7.749,47.39 -8.883,54.728 -2.355,15.252 -1.041,30.641 24.304,39.9 l 60.845,22.227 c 6.555,2.395 12.147,3.436 16.974,3.436 13.805,0 21.359,-8.52 27.328,-18.28 1.776,-2.903 6.794,-11.228 12.181,-20.203 l -12.915,-3.437 c -3.944,-1.049 -7.192,-3.943 -8.687,-7.739 l -9.296,-23.591 c -4.741,2.613 -8.203,4.472 -8.553,4.66 -0.924,0.495 -2.014,0.572 -2.999,0.213 l -43.747,-15.982 c -0.986,-0.36 -1.771,-1.124 -2.156,-2.1 -0.38,-0.958 -9.329,-23.609 -13.135,-35.798 -3.401,-10.894 -11.092,-15.354 -17.197,-14.992 m 71.783,184.092 c -78.123,0 -141.454,-63.331 -141.454,-141.454 0,-78.123 63.331,-141.454 141.454,-141.454 22.087,0 42.99,5.066 61.615,14.093 -1.931,6.652 -2.944,13.601 -2.934,20.703 -0.027,19.75 7.734,38.415 21.857,52.558 14.63,14.65 34.233,22.718 55.198,22.718 h 0.027 c 0.73,0 1.453,-0.034 2.18,-0.053 2.294,10.11 3.51,20.63 3.51,31.435 0,78.123 -63.331,141.454 -141.453,141.454" /></g><g
           transform="translate(173.4204,182.4731)"
           id="g48"><path
             id="path50"
             style="fill:#8c78b6;fill-opacity:1;fill-rule:nonzero;stroke:none"
             d="m 0,0 c -0.493,0.455 -1.26,0.425 -1.714,-0.067 l -21.798,-23.557 -31.591,6.588 c -0.653,0.138 -1.298,-0.283 -1.435,-0.939 -0.137,-0.656 0.284,-1.299 0.94,-1.436 l 31.56,-6.582 9.14,-29.815 c 0.16,-0.523 0.64,-0.859 1.159,-0.859 0.118,0 0.238,0.018 0.356,0.054 0.641,0.196 1.001,0.875 0.804,1.516 l -9.145,29.833 21.791,23.55 C 0.521,-1.223 0.492,-0.455 0,0" /></g><g
           transform="translate(163.2314,160.9336)"
           id="g52"><path
             id="path54"
             style="fill:#8c78b6;fill-opacity:1;fill-rule:nonzero;stroke:none"
             d="m 0,0 c 1.799,-0.653 2.447,-3.419 1.446,-6.177 -1.002,-2.759 -3.272,-4.465 -5.071,-3.811 -1.8,0.652 -2.447,3.418 -1.446,6.176 C -4.07,-1.054 -1.8,0.653 0,0" /></g><g
           transform="translate(138.6094,154.499)"
           id="g56"><path
             id="path58"
             style="fill:#8c78b6;fill-opacity:1;fill-rule:nonzero;stroke:none"
             d="M 0,0 C 1.354,1.354 4.133,0.77 6.208,-1.306 8.283,-3.381 8.868,-6.16 7.514,-7.514 6.16,-8.867 3.381,-8.283 1.306,-6.208 -0.769,-4.133 -1.354,-1.354 0,0" /></g><g
           transform="translate(147.3643,190.7588)"
           id="g60"><path
             id="path62"
             style="fill:#8c78b6;fill-opacity:1;fill-rule:nonzero;stroke:none"
             d="m 0,0 c 0.65,-1.801 -1.061,-4.068 -3.821,-5.064 -2.76,-0.997 -5.524,-0.344 -6.174,1.457 -0.65,1.8 1.06,4.067 3.82,5.064 C -3.415,2.453 -0.65,1.801 0,0" /></g><g
           transform="translate(167.605,185.9531)"
           id="g64"><path
             id="path66"
             style="fill:#8c78b6;fill-opacity:1;fill-rule:nonzero;stroke:none"
             d="m 0,0 c 0.65,-1.801 -1.061,-4.068 -3.821,-5.064 -2.76,-0.997 -5.524,-0.344 -6.174,1.457 -0.65,1.8 1.06,4.067 3.821,5.064 C -3.415,2.453 -0.65,1.801 0,0" /></g><g
           transform="translate(152.4995,169.5791)"
           id="g68"><path
             id="path70"
             style="fill:#8c78b6;fill-opacity:1;fill-rule:nonzero;stroke:none"
             d="m 0,0 c 0.65,-1.801 -1.061,-4.067 -3.821,-5.063 -2.76,-0.998 -5.524,-0.345 -6.174,1.456 -0.65,1.8 1.06,4.068 3.821,5.064 C -3.415,2.453 -0.65,1.801 0,0" /></g><g
           transform="translate(131.103,174.0352)"
           id="g72"><path
             id="path74"
             style="fill:#8c78b6;fill-opacity:1;fill-rule:nonzero;stroke:none"
             d="m 0,0 c 0.65,-1.801 -1.061,-4.068 -3.821,-5.064 -2.76,-0.997 -5.524,-0.344 -6.174,1.457 -0.65,1.8 1.06,4.067 3.82,5.064 C -3.415,2.453 -0.65,1.801 0,0" /></g><g
           transform="translate(117.7769,158.9854)"
           id="g76"><path
             id="path78"
             style="fill:#8c78b6;fill-opacity:1;fill-rule:nonzero;stroke:none"
             d="M 0,0 C 1.354,1.354 4.133,0.77 6.208,-1.306 8.283,-3.381 8.868,-6.16 7.514,-7.514 6.16,-8.867 3.381,-8.283 1.306,-6.208 -0.769,-4.133 -1.354,-1.354 0,0" /></g><g
           transform="translate(141.8188,143.9619)"
           id="g80"><path
             id="path82"
             style="fill:#8c78b6;fill-opacity:1;fill-rule:nonzero;stroke:none"
             d="M 0,0 C 1.354,1.354 4.133,0.77 6.208,-1.306 8.283,-3.38 8.867,-6.16 7.514,-7.514 6.16,-8.867 3.38,-8.282 1.306,-6.208 -0.769,-4.133 -1.354,-1.354 0,0" /></g><g
           transform="translate(121.1006,148.4482)"
           id="g84"><path
             id="path86"
             style="fill:#8c78b6;fill-opacity:1;fill-rule:nonzero;stroke:none"
             d="M 0,0 C 1.354,1.354 4.133,0.77 6.208,-1.306 8.283,-3.38 8.868,-6.16 7.514,-7.514 6.16,-8.867 3.381,-8.282 1.306,-6.208 -0.769,-4.133 -1.354,-1.354 0,0" /></g><g
           transform="translate(145.1343,133.4258)"
           id="g88"><path
             id="path90"
             style="fill:#8c78b6;fill-opacity:1;fill-rule:nonzero;stroke:none"
             d="M 0,0 C 1.354,1.354 4.133,0.769 6.208,-1.307 8.283,-3.381 8.868,-6.16 7.514,-7.515 6.16,-8.868 3.381,-8.283 1.306,-6.208 -0.769,-4.134 -1.354,-1.354 0,0" /></g><g
           transform="translate(124.5283,137.9121)"
           id="g92"><path
             id="path94"
             style="fill:#8c78b6;fill-opacity:1;fill-rule:nonzero;stroke:none"
             d="M 0,0 C 1.354,1.354 4.133,0.769 6.208,-1.307 8.283,-3.381 8.868,-6.16 7.514,-7.515 6.16,-8.868 3.381,-8.283 1.306,-6.208 -0.769,-4.134 -1.354,-1.354 0,0" /></g><g
           transform="translate(183.8711,155.8496)"
           id="g96"><path
             id="path98"
             style="fill:#8c78b6;fill-opacity:1;fill-rule:nonzero;stroke:none"
             d="m 0,0 c 1.841,-0.527 2.677,-3.242 1.868,-6.062 -0.808,-2.822 -2.956,-4.68 -4.796,-4.153 -1.841,0.527 -2.677,3.242 -1.868,6.063 C -3.987,-1.331 -1.84,0.527 0,0" /></g></g></g></g></svg>